<svg width="18" height="17" viewBox="0 0 18 17" fill="none" xmlns="http://www.w3.org/2000/svg">
<path d="M16.5366 5.89625L11.5776 5.17554L9.36079 0.681404C9.30024 0.558357 9.20063 0.458747 9.07758 0.398201C8.76899 0.245857 8.39399 0.37281 8.23969 0.681404L6.02289 5.17554L1.06391 5.89625C0.927191 5.91578 0.802191 5.98023 0.706488 6.07789C0.590788 6.19681 0.527032 6.35679 0.52923 6.5227C0.531427 6.6886 0.599398 6.84684 0.718207 6.96265L4.3061 10.4607L3.45844 15.4002C3.43856 15.5151 3.45128 15.6332 3.49514 15.7413C3.53901 15.8493 3.61227 15.9429 3.70662 16.0114C3.80097 16.08 3.91263 16.1207 4.02895 16.129C4.14526 16.1373 4.26157 16.1128 4.36469 16.0584L8.80024 13.7263L13.2358 16.0584C13.3569 16.1228 13.4975 16.1443 13.6323 16.1209C13.9721 16.0623 14.2006 15.74 14.142 15.4002L13.2944 10.4607L16.8823 6.96265C16.9799 6.86695 17.0444 6.74195 17.0639 6.60523C17.1166 6.26343 16.8784 5.94703 16.5366 5.89625Z" fill="black" fill-opacity="0.48"/>
</svg>
