<svg width="25" height="17" viewBox="0 0 25 17" fill="none" xmlns="http://www.w3.org/2000/svg">
<path d="M3.49388 11.7808C3.91602 11.7808 4.15731 11.5396 4.15731 11.1174V6.0847C4.15731 5.66256 3.91602 5.42127 3.49388 5.42127H0.400024V11.7813L3.49388 11.7808ZM9.41417 8.59227C9.41417 9.97142 10.3965 11.1517 11.6805 11.462V5.7487C11.0342 5.89158 10.4565 6.25197 10.044 6.76962C9.63149 7.28727 9.40916 7.93039 9.41417 8.59227ZM13.0677 11.4624C14.3603 11.1521 15.3169 9.97184 15.334 8.5927C15.3426 7.21399 14.3693 6.05941 13.0677 5.74913V11.4624ZM21.3062 5.4217C20.884 5.4217 20.6427 5.66299 20.6427 6.08513V11.1178C20.6427 11.54 20.884 11.7813 21.3062 11.7813H24.4V5.42127L21.3062 5.4217ZM24.4 13.1686H21.28C20.005 13.1686 19.2555 12.4186 19.2555 11.1431V6.05899C19.2555 4.78356 20.005 4.03399 21.2805 4.03399H24.4V3.14599C24.4 1.37084 23.4953 0.474701 21.694 0.474701H13.0677V4.44756C15.0842 4.77499 16.5752 6.4897 16.6009 8.60127C16.6266 10.7296 15.0927 12.4447 13.0677 12.7721V16.7364H21.694C23.4953 16.7364 24.4 15.8398 24.4 14.0647V13.1686ZM0.400024 13.1686V14.0643C0.400024 15.8398 1.31331 16.736 3.10602 16.736H11.68V12.7717C9.6636 12.4533 8.14688 10.7381 8.14688 8.60127C8.14688 6.48113 9.6636 4.74027 11.68 4.43042V0.474701H3.10602C1.31288 0.474701 0.400024 1.36227 0.400024 3.14599V4.03399H3.5196C4.79502 4.03399 5.5446 4.78356 5.5446 6.05899V11.1431C5.5446 12.4186 4.7946 13.1686 3.5196 13.1686H0.400024Z" fill="#15143C"/>
</svg>
