<svg width="22" height="20" viewBox="0 0 22 20" fill="none" xmlns="http://www.w3.org/2000/svg">
<path d="M17.2001 13V7C17.2001 4.172 17.2001 2.757 16.3211 1.879C15.4431 1 14.0281 1 11.2001 1H7.20007C4.37207 1 2.95707 1 2.07907 1.879C1.20007 2.757 1.20007 4.172 1.20007 7V13C1.20007 15.828 1.20007 17.243 2.07907 18.121C2.95707 19 4.37207 19 7.20007 19H19.2001M5.20007 6H13.2001M5.20007 10H13.2001M5.20007 14H9.20007" stroke="black" stroke-opacity="0.48" stroke-width="1.5" stroke-linecap="round" stroke-linejoin="round"/>
<path d="M17.2001 6H18.2001C19.6141 6 20.3211 6 20.7601 6.44C21.2001 6.879 21.2001 7.586 21.2001 9V17C21.2001 17.5304 20.9894 18.0391 20.6143 18.4142C20.2392 18.7893 19.7305 19 19.2001 19C18.6696 19 18.1609 18.7893 17.7859 18.4142C17.4108 18.0391 17.2001 17.5304 17.2001 17V6Z" stroke="black" stroke-opacity="0.48" stroke-width="1.5" stroke-linecap="round" stroke-linejoin="round"/>
</svg>
