<svg width="17" height="16" viewBox="0 0 17 16" fill="none" xmlns="http://www.w3.org/2000/svg">
<path d="M6.33333 11.3333V4.66667C6.33333 3.75 7.075 3 8 3H15.5V2.16667C15.5 1.25 14.75 0.5 13.8333 0.5H2.16667C1.24167 0.5 0.5 1.25 0.5 2.16667V13.8333C0.5 14.75 1.24167 15.5 2.16667 15.5H13.8333C14.75 15.5 15.5 14.75 15.5 13.8333V13H8C7.075 13 6.33333 12.25 6.33333 11.3333ZM8.83333 4.66667C8.375 4.66667 8 5.04167 8 5.5V10.5C8 10.9583 8.375 11.3333 8.83333 11.3333H16.3333V4.66667H8.83333ZM11.3333 9.25C10.6417 9.25 10.0833 8.69167 10.0833 8C10.0833 7.30833 10.6417 6.75 11.3333 6.75C12.025 6.75 12.5833 7.30833 12.5833 8C12.5833 8.69167 12.025 9.25 11.3333 9.25Z" fill="black" fill-opacity="0.48"/>
</svg>
