<svg width="24" height="24" viewBox="0 0 24 24" fill="none" xmlns="http://www.w3.org/2000/svg">
<path fill-rule="evenodd" clip-rule="evenodd" d="M15.123 8.44336L14.4961 10.5H12.8965L15.5801 2.50195H17.4316L20.1035 10.5H18.4219L17.7949 8.44336L15.123 8.44336ZM17.4785 7.26562L16.5 4.03125H16.4297L15.4512 7.26562L17.4785 7.26562Z" fill="black" fill-opacity="0.48"/>
<path d="M19.4414 21H13.541V19.9629L17.4082 14.3848V14.3027H13.6465V13.002L19.3242 13.002L19.3242 14.0391L15.4746 19.6172V19.6992H19.4414V21Z" fill="black" fill-opacity="0.48"/>
<path d="M6.75 3.75C6.75 3.33579 6.41421 3 6 3C5.58579 3 5.25 3.33579 5.25 3.75L5.25 18.4393L3.53033 16.7197C3.23744 16.4268 2.76256 16.4268 2.46967 16.7197C2.17678 17.0126 2.17678 17.4874 2.46967 17.7803L5.4684 20.7791L5.47955 20.79C5.54913 20.8571 5.62848 20.9082 5.71291 20.9431C5.80134 20.9798 5.89831 21 6 21C6.10169 21 6.19866 20.9798 6.28709 20.9431C6.37555 20.9065 6.45842 20.8522 6.53033 20.7803L9.53033 17.7803C9.82322 17.4874 9.82322 17.0126 9.53033 16.7197C9.23744 16.4268 8.76256 16.4268 8.46967 16.7197L6.75 18.4393L6.75 3.75Z" fill="black" fill-opacity="0.48"/>
</svg>
