<svg width="24" height="24" viewBox="0 0 24 24" fill="none" xmlns="http://www.w3.org/2000/svg">
<g clip-path="url(#clip0_4_442)">
<path fill-rule="evenodd" clip-rule="evenodd" d="M7 2V6H5V2H7Z" fill="black" fill-opacity="0.48"/>
<path fill-rule="evenodd" clip-rule="evenodd" d="M19 2V6H17V2H19Z" fill="black" fill-opacity="0.48"/>
<path fill-rule="evenodd" clip-rule="evenodd" d="M0 9H24V11H0V9Z" fill="black" fill-opacity="0.48"/>
<path fill-rule="evenodd" clip-rule="evenodd" d="M3 6.74121C2.34957 6.74121 2 7.19559 2 7.54774V20.1935C2 20.5456 2.34957 21 3 21H21C21.6504 21 22 20.5456 22 20.1935V7.54774C22 7.19559 21.6504 6.74121 21 6.74121H3ZM0 7.54774C0 5.90446 1.44129 4.74121 3 4.74121H21C22.5587 4.74121 24 5.90446 24 7.54774V20.1935C24 21.8368 22.5587 23 21 23H3C1.44129 23 0 21.8368 0 20.1935V7.54774Z" fill="black" fill-opacity="0.48"/>
<path d="M9.69727 19.1406C9.21973 19.1406 8.80078 19.0615 8.44043 18.9033C8.08301 18.7422 7.80029 18.5195 7.59229 18.2354C7.38428 17.9482 7.26416 17.6157 7.23193 17.2378L7.22754 17.1807H8.49756L8.50195 17.229C8.52246 17.3931 8.58252 17.5396 8.68213 17.6685C8.78467 17.7944 8.92236 17.894 9.09521 17.9673C9.26807 18.0376 9.46875 18.0728 9.69727 18.0728C9.92285 18.0728 10.1191 18.0347 10.2861 17.9585C10.4561 17.8794 10.5864 17.771 10.6772 17.6333C10.771 17.4956 10.8179 17.3374 10.8179 17.1587V17.1499C10.8179 16.8452 10.7095 16.6123 10.4927 16.4512C10.2788 16.29 9.97998 16.2095 9.59619 16.2095H8.87109V15.2646H9.57861C9.80127 15.2646 9.99463 15.228 10.1587 15.1548C10.3228 15.0815 10.4502 14.9805 10.541 14.8516C10.6318 14.7197 10.6772 14.5688 10.6772 14.3989V14.3901C10.6772 14.2144 10.6377 14.0635 10.5586 13.9375C10.4824 13.8086 10.3696 13.7104 10.2202 13.6431C10.0737 13.5728 9.89648 13.5376 9.68848 13.5376C9.48047 13.5376 9.29736 13.5728 9.13916 13.6431C8.98096 13.7134 8.85498 13.8145 8.76123 13.9463C8.66748 14.0752 8.61182 14.2275 8.59424 14.4033L8.58984 14.4429H7.36816L7.37256 14.3901C7.40479 14.0093 7.51904 13.6797 7.71533 13.4014C7.91455 13.1201 8.18115 12.9033 8.51514 12.751C8.85205 12.5957 9.24316 12.5181 9.68848 12.5181C10.1426 12.5181 10.5381 12.5898 10.875 12.7334C11.2119 12.874 11.4712 13.0718 11.6528 13.3267C11.8374 13.5786 11.9297 13.8745 11.9297 14.2144V14.2231C11.9297 14.4868 11.8711 14.7183 11.7539 14.9175C11.6367 15.1167 11.4785 15.2808 11.2793 15.4097C11.0801 15.5386 10.856 15.6294 10.6069 15.6821V15.7085C11.0786 15.7524 11.4565 15.9048 11.7407 16.1655C12.0249 16.4263 12.167 16.772 12.167 17.2026V17.2114C12.167 17.5952 12.063 17.9321 11.855 18.2222C11.6499 18.5122 11.3628 18.7378 10.9937 18.8989C10.6245 19.0601 10.1924 19.1406 9.69727 19.1406ZM14.9004 19V13.9111H14.8213L13.2656 14.9922V13.7969L14.9048 12.6587H16.2275V19H14.9004Z" fill="black" fill-opacity="0.48"/>
</g>
<defs>
<clipPath id="clip0_4_442">
<rect width="24" height="24" fill="white"/>
</clipPath>
</defs>
</svg>
