<svg width="14" height="16" viewBox="0 0 14 16" fill="none" xmlns="http://www.w3.org/2000/svg">
<path d="M0.999959 15.6666C0.815716 15.6666 0.666626 15.5174 0.666626 15.3333V0.666646C0.666626 0.482563 0.815716 0.333313 0.999959 0.333313C1.1842 0.333313 1.33329 0.482563 1.33329 0.666646V15.3333C1.33329 15.5174 1.1842 15.6666 0.999959 15.6666Z" fill="#5D5669" fill-opacity="0.16"/>
<path d="M4.33325 1.66663H1.33325V4.66663H4.33325V1.66663Z" fill="#EDE9F5"/>
<path d="M7.33325 1.66663H4.33325V4.66663H7.33325V1.66663Z" fill="#2F283B"/>
<path d="M10.3333 1.66663H7.33325V4.66663H10.3333V1.66663Z" fill="#EDE9F5"/>
<path d="M13.3333 1.66663H10.3333V4.66663H13.3333V1.66663Z" fill="#2F283B"/>
<path d="M4.33325 4.66663H1.33325V7.66663H4.33325V4.66663Z" fill="#2F283B"/>
<path d="M7.33325 4.66663H4.33325V7.66663H7.33325V4.66663Z" fill="#EDE9F5"/>
<path d="M10.3333 4.66663H7.33325V7.66663H10.3333V4.66663Z" fill="#2F283B"/>
<path d="M13.3333 4.66663H10.3333V7.66663H13.3333V4.66663Z" fill="#EDE9F5"/>
<path d="M4.33325 7.66663H1.33325V10.6666H4.33325V7.66663Z" fill="#EDE9F5"/>
<path d="M7.33325 7.66663H4.33325V10.6666H7.33325V7.66663Z" fill="#2F283B"/>
<path d="M10.3333 7.66663H7.33325V10.6666H10.3333V7.66663Z" fill="#EDE9F5"/>
<path d="M13.3333 7.66663H10.3333V10.6666H13.3333V7.66663Z" fill="#2F283B"/>
</svg>
