<svg width="24" height="25" viewBox="0 0 24 25" fill="none" xmlns="http://www.w3.org/2000/svg">
<path opacity="0.5" d="M12 16.5C6.23997 16.5 5.21997 10.76 5.03997 6.20599C4.98897 4.93999 4.96397 4.30599 5.43997 3.72099C5.91497 3.13499 6.48397 3.03899 7.62297 2.84699C9.06979 2.60987 10.5339 2.4938 12 2.49999C13.784 2.49999 15.253 2.65699 16.377 2.84699C17.516 3.03899 18.085 3.13499 18.561 3.72099C19.037 4.30699 19.011 4.93999 18.961 6.20599C18.781 10.759 17.761 16.5 12.001 16.5" fill="#F8F8F8"/>
<path d="M17.64 12.922L20.457 11.357C21.209 10.939 21.585 10.73 21.793 10.378C22 10.026 22 9.596 22 8.735V8.662C22 7.619 22 7.097 21.717 6.704C21.434 6.311 20.939 6.146 19.949 5.816L19 5.5L18.983 5.585C18.978 5.774 18.97 5.98 18.961 6.206C18.873 8.431 18.584 10.939 17.641 12.922M5.04 6.206C5.127 8.431 5.416 10.939 6.36 12.922L3.543 11.357C2.791 10.939 2.414 10.73 2.207 10.378C2 10.026 2 9.596 2 8.735V8.662C2 7.619 2 7.097 2.283 6.704C2.566 6.311 3.061 6.146 4.051 5.816L5 5.5L5.017 5.587C5.022 5.775 5.03 5.981 5.039 6.207" fill="#F8F8F8"/>
<path fill-rule="evenodd" clip-rule="evenodd" d="M5.25 22.5C5.25 22.3011 5.32902 22.1103 5.46967 21.9697C5.61032 21.829 5.80109 21.75 6 21.75H18C18.1989 21.75 18.3897 21.829 18.5303 21.9697C18.671 22.1103 18.75 22.3011 18.75 22.5C18.75 22.6989 18.671 22.8897 18.5303 23.0303C18.3897 23.171 18.1989 23.25 18 23.25H6C5.80109 23.25 5.61032 23.171 5.46967 23.0303C5.32902 22.8897 5.25 22.6989 5.25 22.5Z" fill="#F8F8F8"/>
<path opacity="0.5" d="M15.458 21.75H8.54199L8.83899 20C8.88429 19.7734 9.00667 19.5694 9.18533 19.4229C9.36399 19.2763 9.5879 19.1961 9.81899 19.196H14.18C14.4111 19.1961 14.635 19.2763 14.8137 19.4229C14.9923 19.5694 15.1147 19.7734 15.16 20L15.458 21.75Z" fill="#F8F8F8"/>
<path d="M12 16.5C11.74 16.5 11.49 16.489 11.25 16.466V19.196H12.75V16.466C12.5007 16.4891 12.2504 16.5004 12 16.5Z" fill="#F8F8F8"/>
</svg>
