<svg width="32" height="20" viewBox="0 0 32 20" fill="none" xmlns="http://www.w3.org/2000/svg">
<g clip-path="url(#clip0_62_536)">
<path d="M16 17.6667C11.7727 17.6667 8.33337 14.2277 8.33337 10C8.33337 5.77233 11.7727 2.33333 16 2.33333C20.2274 2.33333 23.6667 5.77233 23.6667 10C23.6667 14.2277 20.2274 17.6667 16 17.6667Z" fill="#E6E6E6"/>
<path d="M16 17.1667C12.0488 17.1667 8.83337 13.9515 8.83337 10C8.83337 6.04848 12.0488 2.83333 16 2.83333C19.9512 2.83333 23.1667 6.04848 23.1667 10C23.1667 13.9515 19.9512 17.1667 16 17.1667Z" stroke="black" stroke-opacity="0.16"/>
<path d="M17.9241 13H14.0761C13.9317 13 13.8037 12.907 13.7591 12.7697L12.5701 9.10999C12.5254 8.97299 12.5744 8.82232 12.6911 8.73765L15.8041 6.47599C15.9211 6.39065 16.0791 6.39065 16.1961 6.47599L19.3091 8.73765C19.4261 8.82232 19.4747 8.97299 19.4301 9.10999L18.2411 12.7697C18.1964 12.907 18.0684 13 17.9241 13Z" fill="#4685EB"/>
<path d="M13.7774 2.87833L15.8054 4.34C15.8634 4.382 15.9317 4.40266 16.0001 4.40266C16.0684 4.40266 16.1367 4.382 16.1947 4.34L18.2227 2.87833C18.2837 2.83433 18.3241 2.77099 18.3447 2.70166C17.6054 2.46333 16.8177 2.33333 16.0001 2.33333C15.1824 2.33333 14.3947 2.46333 13.6554 2.70133C13.6757 2.77099 13.7161 2.83399 13.7774 2.87833Z" fill="#4685EB"/>
<path d="M8.53941 9.91333L10.5567 8.43599C10.6724 8.35133 10.7211 8.20199 10.6771 8.06533L9.91441 5.68799C9.89141 5.61666 9.84441 5.55933 9.78507 5.51833C8.87707 6.77399 8.33874 8.31333 8.33374 9.97666C8.33641 9.97666 8.33941 9.97766 8.34207 9.97766C8.41174 9.97799 8.48107 9.95599 8.53941 9.91333Z" fill="#4685EB"/>
<path d="M13.6121 17.0683L12.8304 14.6937C12.7857 14.5573 12.6584 14.465 12.5151 14.4643L10.0201 14.4553H10.0191C9.94408 14.4553 9.87475 14.4827 9.81775 14.5267C10.7541 15.802 12.0747 16.7773 13.6074 17.282C13.6314 17.214 13.6357 17.1397 13.6121 17.0683Z" fill="#4685EB"/>
<path d="M21.9797 14.4553L19.4847 14.4643C19.3411 14.465 19.2141 14.557 19.1694 14.6937L18.3877 17.0683C18.3644 17.1397 18.3687 17.214 18.3927 17.2823C19.9257 16.7773 21.2461 15.802 22.1824 14.527C22.1251 14.483 22.0557 14.4557 21.9811 14.4557L21.9797 14.4553Z" fill="#4685EB"/>
<path d="M22.0853 5.68799L21.3227 8.06533C21.279 8.20199 21.3273 8.35133 21.443 8.43599L23.4603 9.91333C23.5187 9.95599 23.5877 9.97766 23.6573 9.97766C23.66 9.97766 23.663 9.97666 23.6657 9.97666C23.6607 8.31333 23.1223 6.77399 22.2143 5.51833C22.1553 5.55933 22.1083 5.61699 22.0853 5.68799Z" fill="#4685EB"/>
</g>
<defs>
<clipPath id="clip0_62_536">
<rect width="16" height="16" fill="white" transform="translate(8 2)"/>
</clipPath>
</defs>
</svg>
