<svg width="17" height="20" viewBox="0 0 17 20" fill="none" xmlns="http://www.w3.org/2000/svg">
<path d="M8.75 17.2822H8.5C6.13333 17.2822 4.125 16.4572 2.475 14.8072C0.825 13.1572 0 11.1489 0 8.78223C0 6.41556 0.825 4.40723 2.475 2.75723C4.125 1.10723 6.13333 0.282227 8.5 0.282227C9.68333 0.282227 10.7877 0.502893 11.813 0.944227C12.8383 1.38556 13.7383 1.99389 14.513 2.76923C15.2877 3.54456 15.8957 4.44456 16.337 5.46923C16.7783 6.49389 16.9993 7.59823 17 8.78223C17 11.0156 16.3707 13.0906 15.112 15.0072C13.8533 16.9239 12.266 18.4239 10.35 19.5072C10.1833 19.5906 10.0167 19.6366 9.85 19.6452C9.68333 19.6539 9.53333 19.6162 9.4 19.5322C9.26667 19.4489 9.15 19.3406 9.05 19.2072C8.95 19.0739 8.89167 18.9156 8.875 18.7322L8.75 17.2822ZM8.475 14.2572C8.75833 14.2572 9 14.1572 9.2 13.9572C9.4 13.7572 9.5 13.5156 9.5 13.2322C9.5 12.9489 9.4 12.7072 9.2 12.5072C9 12.3072 8.75833 12.2072 8.475 12.2072C8.19167 12.2072 7.95 12.3072 7.75 12.5072C7.55 12.7072 7.45 12.9489 7.45 13.2322C7.45 13.5156 7.55 13.7572 7.75 13.9572C7.95 14.1572 8.19167 14.2572 8.475 14.2572ZM6.3 6.65723C6.48333 6.74056 6.66667 6.74489 6.85 6.67023C7.03333 6.59556 7.18333 6.47456 7.3 6.30723C7.45 6.10723 7.625 5.95289 7.825 5.84423C8.025 5.73556 8.25 5.68156 8.5 5.68223C8.9 5.68223 9.225 5.79456 9.475 6.01923C9.725 6.24389 9.85 6.53156 9.85 6.88223C9.85 7.09889 9.78767 7.31556 9.663 7.53223C9.53833 7.74889 9.31733 8.01556 9 8.33223C8.58333 8.69889 8.275 9.04489 8.075 9.37023C7.875 9.69556 7.775 10.0246 7.775 10.3572C7.775 10.5572 7.846 10.7282 7.988 10.8702C8.13 11.0122 8.30067 11.0829 8.5 11.0822C8.7 11.0822 8.86667 11.0072 9 10.8572C9.13333 10.7072 9.23333 10.5322 9.3 10.3322C9.38333 10.0489 9.53333 9.79056 9.75 9.55723C9.96667 9.32389 10.1667 9.11556 10.35 8.93223C10.7 8.58223 10.9627 8.23223 11.138 7.88223C11.3133 7.53223 11.4007 7.18223 11.4 6.83223C11.4 6.06556 11.1373 5.44889 10.612 4.98223C10.0867 4.51556 9.38267 4.28223 8.5 4.28223C7.96667 4.28223 7.475 4.41156 7.025 4.67023C6.575 4.92889 6.20833 5.28289 5.925 5.73223C5.825 5.91556 5.81233 6.09489 5.887 6.27023C5.96167 6.44556 6.09933 6.57456 6.3 6.65723Z" fill="white"/>
</svg>
