<svg width="31" height="16" viewBox="0 0 31 16" fill="none" xmlns="http://www.w3.org/2000/svg">
<circle cx="2.5" cy="8" r="2.5" fill="#FF0D00"/>
<path d="M12.24 9.89H15.72V11H10.86V4.4H12.24V9.89ZM17.4159 5.28C17.1292 5.28 16.9159 5.22 16.7759 5.1C16.6359 4.97333 16.5659 4.79 16.5659 4.55C16.5659 4.30333 16.6359 4.12 16.7759 4C16.9159 3.87333 17.1292 3.81 17.4159 3.81C17.7025 3.81 17.9159 3.87333 18.0559 4C18.1959 4.12 18.2659 4.30333 18.2659 4.55C18.2659 4.79 18.1959 4.97333 18.0559 5.1C17.9159 5.22 17.7025 5.28 17.4159 5.28ZM18.0959 6V11H16.7259V6H18.0959ZM22.8281 6H24.2481L22.3481 11H20.7681L18.8681 6H20.3281L21.5681 9.95L22.8281 6ZM27.2685 11.1C26.7418 11.1 26.2818 10.9967 25.8885 10.79C25.5018 10.5833 25.2018 10.2867 24.9885 9.9C24.7752 9.51333 24.6685 9.04667 24.6685 8.5C24.6685 7.95333 24.7752 7.48667 24.9885 7.1C25.2018 6.71333 25.4985 6.41667 25.8785 6.21C26.2652 6.00333 26.7052 5.9 27.1985 5.9C27.7052 5.9 28.1352 6.00333 28.4885 6.21C28.8418 6.41 29.1118 6.68667 29.2985 7.04C29.4852 7.38667 29.5785 7.78333 29.5785 8.23C29.5785 8.36333 29.5752 8.49 29.5685 8.61C29.5618 8.73 29.5518 8.83667 29.5385 8.93H25.5485V7.98H28.9385L28.2785 8.22C28.2785 7.8 28.1818 7.47667 27.9885 7.25C27.8018 7.02333 27.5352 6.91 27.1885 6.91C26.9352 6.91 26.7152 6.97 26.5285 7.09C26.3485 7.21 26.2118 7.39 26.1185 7.63C26.0252 7.86333 25.9785 8.16 25.9785 8.52C25.9785 8.87333 26.0285 9.16667 26.1285 9.4C26.2352 9.62667 26.3818 9.79667 26.5685 9.91C26.7618 10.0233 26.9918 10.08 27.2585 10.08C27.5518 10.08 27.7885 10.0233 27.9685 9.91C28.1485 9.79667 28.2885 9.64 28.3885 9.44L29.4785 9.86C29.3718 10.12 29.2085 10.3433 28.9885 10.53C28.7752 10.7167 28.5185 10.86 28.2185 10.96C27.9252 11.0533 27.6085 11.1 27.2685 11.1Z" fill="white"/>
</svg>
