<svg width="24" height="24" viewBox="0 0 24 24" fill="none" xmlns="http://www.w3.org/2000/svg">
<path d="M23.9982 12.0247C24.0334 18.4725 18.7565 24.0105 11.9684 24C5.35083 23.9894 -0.0332324 18.5919 0.00015444 11.9526C0.0335412 5.17107 5.59156 -0.0314724 12.0616 0.000143326C18.6563 0.0335155 24.0545 5.4521 23.9982 12.0247ZM4.48101 17.2114C7.1748 21.1844 12.9894 22.6423 17.4175 19.3981C21.9423 16.082 21.9441 10.2981 19.7493 7.16462C19.665 7.26825 19.5789 7.36661 19.5016 7.47024C19.0271 8.10255 18.5351 8.72257 18.0905 9.3742C17.8656 9.70441 17.6073 9.80277 17.2207 9.79926C15.1859 9.7817 13.151 9.79048 11.1144 9.79048H10.582C10.9914 10.8039 11.378 11.7612 11.7892 12.7799C10.3342 12.7905 8.93727 12.7869 7.56314 12.7834C7.33599 12.0849 6.78668 10.62 6.50179 9.79575C6.64764 9.79575 6.75005 9.79575 6.93407 9.79575C7.56314 9.79575 8.21486 9.80277 8.82306 9.80277C9.13037 9.80277 9.28168 9.72725 9.45565 9.50769C10.09 8.70325 10.7542 7.92339 11.3868 7.11719C11.5783 6.87305 11.7839 6.78699 12.0914 6.78874C14.4057 6.80104 16.7036 6.81359 19.0179 6.81183C19.1672 6.81183 19.3841 6.81183 19.5672 6.81183C17.4515 4.06653 14.6868 2.5698 11.2568 2.87893C7.48055 3.21968 4.83773 5.25538 3.42494 8.77351C2.21598 11.784 2.97685 15.2214 4.3668 16.9725C4.46696 16.8443 4.56887 16.7196 4.66376 16.5931C5.18214 15.9029 5.71105 15.2196 6.2101 14.5153C6.38406 14.2711 6.57208 14.1886 6.86553 14.1903C8.9443 14.2026 11.0231 14.1974 13.1036 14.1956C13.26 14.1956 13.4164 14.1886 13.6255 14.1833C13.2178 13.1751 12.8312 12.2196 12.4429 11.2589C13.9276 11.2589 16.2389 11.2589 16.6988 11.243C17.0555 12.1968 17.4175 13.1646 17.7936 14.1693C17.6108 14.178 17.4685 14.1886 17.3261 14.1886C16.6672 14.1903 16.0082 14.1991 15.3493 14.1851C15.105 14.1798 14.9451 14.2588 14.794 14.4503C14.1579 15.253 13.4919 16.0311 12.8664 16.8425C12.645 17.1288 12.4113 17.2237 12.0545 17.2219C9.69814 17.2061 7.33998 17.2131 4.98182 17.2131C4.83773 17.2131 4.69539 17.2131 4.48453 17.2131L4.48101 17.2114Z" fill="#15143C"/>
</svg>
