<svg width="16" height="16" viewBox="0 0 16 16" fill="none" xmlns="http://www.w3.org/2000/svg">
<path d="M8.00004 15.6666C3.77271 15.6666 0.333374 12.2276 0.333374 7.99998C0.333374 3.77231 3.77271 0.333313 8.00004 0.333313C12.2274 0.333313 15.6667 3.77231 15.6667 7.99998C15.6667 12.2276 12.2274 15.6666 8.00004 15.6666Z" fill="#E6E6E6"/>
<path d="M8.00004 15.1666C4.04884 15.1666 0.833374 11.9515 0.833374 7.99998C0.833374 4.04847 4.04884 0.833313 8.00004 0.833313C11.9512 0.833313 15.1667 4.04847 15.1667 7.99998C15.1667 11.9515 11.9512 15.1666 8.00004 15.1666Z" stroke="black" stroke-opacity="0.16"/>
<path d="M9.92406 11H6.07606C5.93172 11 5.80372 10.907 5.75906 10.7697L4.57006 7.10999C4.52539 6.97299 4.57439 6.82232 4.69106 6.73765L7.80406 4.47599C7.92106 4.39065 8.07906 4.39065 8.19606 4.47599L11.3091 6.73765C11.4261 6.82232 11.4747 6.97299 11.4301 7.10999L10.2411 10.7697C10.1964 10.907 10.0684 11 9.92406 11Z" fill="#48AB93"/>
<path fill-rule="evenodd" clip-rule="evenodd" d="M12.4714 3.52858C12.7318 3.78892 12.7318 4.21103 12.4714 4.47138L4.47145 12.4714C4.2111 12.7317 3.78899 12.7317 3.52864 12.4714C3.26829 12.211 3.26829 11.7889 3.52864 11.5286L11.5286 3.52858C11.789 3.26823 12.2111 3.26823 12.4714 3.52858Z" fill="#E55A53"/>
<path fill-rule="evenodd" clip-rule="evenodd" d="M3.52864 3.52858C3.78899 3.26823 4.2111 3.26823 4.47145 3.52858L12.4714 11.5286C12.7318 11.7889 12.7318 12.211 12.4714 12.4714C12.2111 12.7317 11.789 12.7317 11.5286 12.4714L3.52864 4.47138C3.26829 4.21103 3.26829 3.78892 3.52864 3.52858Z" fill="#E55A53"/>
<path d="M5.7774 0.878313L7.8054 2.33998C7.8634 2.38198 7.93173 2.40265 8.00006 2.40265C8.0684 2.40265 8.13673 2.38198 8.19473 2.33998L10.2227 0.878313C10.2837 0.834313 10.3241 0.77098 10.3447 0.701646C9.6054 0.463313 8.81773 0.333313 8.00006 0.333313C7.1824 0.333313 6.39473 0.463313 5.6554 0.701313C5.67573 0.77098 5.71606 0.83398 5.7774 0.878313Z" fill="#48AB93"/>
<path d="M0.539407 7.91331L2.55674 6.43598C2.67241 6.35131 2.72107 6.20198 2.67707 6.06531L1.91441 3.68798C1.89141 3.61664 1.84441 3.55931 1.78507 3.51831C0.877074 4.77398 0.33874 6.31331 0.33374 7.97664C0.336407 7.97664 0.339407 7.97764 0.342074 7.97764C0.41174 7.97798 0.481074 7.95598 0.539407 7.91331Z" fill="#48AB93"/>
<path d="M5.61208 15.0683L4.83042 12.6937C4.78575 12.5573 4.65842 12.465 4.51508 12.4643L2.02008 12.4553H2.01908C1.94408 12.4553 1.87475 12.4827 1.81775 12.5267C2.75408 13.802 4.07475 14.7773 5.60742 15.282C5.63142 15.214 5.63575 15.1397 5.61208 15.0683Z" fill="#48AB93"/>
<path d="M13.9797 12.4553L11.4847 12.4643C11.3411 12.465 11.2141 12.557 11.1694 12.6937L10.3877 15.0683C10.3644 15.1397 10.3687 15.214 10.3927 15.2823C11.9257 14.7773 13.2461 13.802 14.1824 12.527C14.1251 12.483 14.0557 12.4557 13.9811 12.4557L13.9797 12.4553Z" fill="#48AB93"/>
<path d="M14.0853 3.68798L13.3227 6.06531C13.279 6.20198 13.3273 6.35131 13.443 6.43598L15.4603 7.91331C15.5187 7.95598 15.5877 7.97764 15.6573 7.97764C15.66 7.97764 15.663 7.97664 15.6657 7.97664C15.6607 6.31331 15.1223 4.77398 14.2143 3.51831C14.1553 3.55931 14.1083 3.61698 14.0853 3.68798Z" fill="#48AB93"/>
</svg>
