<svg width="17" height="21" viewBox="0 0 17 21" fill="none" xmlns="http://www.w3.org/2000/svg">
<path fill-rule="evenodd" clip-rule="evenodd" d="M3.09651 3.06971C4.22632 1.61311 5.98042 0.510254 8.38554 0.510254C10.7903 0.510254 12.5443 1.61315 13.6742 3.06967C14.7827 4.49865 15.2988 6.27235 15.2988 7.71634C15.2988 8.12453 15.2863 8.42844 15.277 8.65639C15.2751 8.70299 15.2733 8.74642 15.2718 8.78692C15.2626 9.0312 15.2653 9.13483 15.2813 9.23413C15.3198 9.4721 15.4425 9.7739 15.9897 10.9799C15.9964 10.9946 16.0026 11.0095 16.0085 11.0246C16.4174 12.0768 16.3283 13.0576 15.8348 13.8899C15.3677 14.6779 14.5892 15.2483 13.7668 15.6586C12.1223 16.479 9.95969 16.8288 8.38554 16.8288C6.81098 16.8288 4.64812 16.479 3.00358 15.6586C2.18119 15.2483 1.40274 14.6779 0.935676 13.8898C0.442362 13.0574 0.353526 12.0766 0.76266 11.0244C0.768494 11.0094 0.774741 10.9945 0.781393 10.9799C1.32861 9.7739 1.4513 9.4721 1.48975 9.23413C1.50579 9.13483 1.50844 9.0312 1.4993 8.78692C1.49779 8.74643 1.49601 8.703 1.4941 8.6564C1.48477 8.42845 1.47232 8.12454 1.47232 7.71634C1.47232 6.27244 1.98809 4.49874 3.09651 3.06971ZM4.48102 4.1436C3.62302 5.24978 3.22449 6.64108 3.22449 7.71634C3.22449 8.08582 3.23534 8.35182 3.24458 8.57852C3.24659 8.62778 3.24852 8.67519 3.25025 8.7214C3.25972 8.97454 3.26548 9.22897 3.21949 9.5136C3.13574 10.032 2.88325 10.5883 2.40889 11.6336L2.38766 11.6804C2.17029 12.2536 2.24456 12.6616 2.44303 12.9965C2.67015 13.3797 3.11762 13.7574 3.78575 14.0907C5.12228 14.7574 6.99893 15.0766 8.38554 15.0766C9.77167 15.0766 11.6481 14.7575 12.9847 14.0907C13.6528 13.7574 14.1004 13.3797 14.3276 12.9964C14.5262 12.6614 14.6005 12.2534 14.3834 11.6802L14.3622 11.6336C13.8878 10.5883 13.6354 10.032 13.5516 9.5136C13.5056 9.22896 13.5114 8.97454 13.5208 8.7214C13.5226 8.67519 13.5245 8.62779 13.5265 8.57853C13.5358 8.35183 13.5466 8.08583 13.5466 7.71634C13.5466 6.64117 13.1479 5.24987 12.2898 4.14364C11.453 3.06495 10.1885 2.26243 8.38554 2.26243C6.58211 2.26243 5.31765 3.06499 4.48102 4.1436Z" fill="#15143C"/>
<path fill-rule="evenodd" clip-rule="evenodd" d="M5.60912 17.815C5.96998 17.4927 6.5238 17.5239 6.84613 17.8848C7.73456 18.8794 9.04124 18.871 9.92483 17.884C10.2476 17.5235 10.8014 17.4929 11.1619 17.8157C11.5224 18.1384 11.553 18.6922 11.2303 19.0527C9.65708 20.81 7.13123 20.8342 5.53936 19.052C5.21703 18.6911 5.24827 18.1373 5.60912 17.815Z" fill="#15143C"/>
</svg>
