<svg width="24" height="18" viewBox="0 0 24 18" fill="none" xmlns="http://www.w3.org/2000/svg">
<path fill-rule="evenodd" clip-rule="evenodd" d="M7.6224 1.99515C9.07823 1.8689 10.5387 1.80377 12 1.79995C13.504 1.79995 14.9888 1.87835 16.3776 1.99515C18.048 2.13595 19.1296 2.23195 19.9552 2.42715C20.7072 2.60475 21.128 2.83995 21.4896 3.20955C21.528 3.24955 21.5856 3.31035 21.6208 3.35355C21.9408 3.72155 22.1488 4.18235 22.2688 5.05275C22.3968 5.98555 22.4 7.20155 22.4 9.03995C22.4 10.856 22.3968 12.056 22.2688 12.976C22.1504 13.8336 21.9424 14.2896 21.6208 14.6624C21.5778 14.7115 21.5336 14.7596 21.488 14.8064C21.12 15.1808 20.704 15.4128 19.9712 15.5856C19.16 15.7776 18.1024 15.8704 16.4608 16.008C15.0704 16.1232 13.5616 16.2 12 16.2C10.4384 16.2 8.928 16.1232 7.5392 16.008C5.8976 15.8704 4.84 15.7776 4.0288 15.5856C3.2944 15.4128 2.8784 15.1808 2.512 14.8064C2.46646 14.7595 2.42218 14.7115 2.3792 14.6624C2.0592 14.2896 1.8512 13.8336 1.7312 12.976C1.6032 12.056 1.6 10.856 1.6 9.03995C1.6 7.20155 1.6032 5.98395 1.7312 5.05275C1.8512 4.18235 2.0592 3.72155 2.3792 3.35355C2.416 3.31035 2.472 3.24955 2.5104 3.20955C2.872 2.83995 3.2928 2.60475 4.0448 2.42715C4.872 2.23195 5.952 2.13595 7.6224 1.99515ZM0 9.03995C0 5.45275 0 3.65915 1.168 2.30715C1.2256 2.23995 1.304 2.15515 1.3664 2.09115C2.6144 0.812751 4.24 0.675151 7.488 0.401551C8.912 0.279951 10.4432 0.199951 12 0.199951C13.5568 0.199951 15.088 0.279951 16.512 0.401551C19.76 0.675151 21.3856 0.812751 22.6336 2.09115C22.696 2.15515 22.7728 2.23995 22.832 2.30715C24 3.65915 24 5.45275 24 9.03995C24 12.584 24 14.3568 22.8304 15.7088C22.7658 15.7826 22.6991 15.8547 22.6304 15.9248C21.3808 17.2032 19.7856 17.336 16.5936 17.6016C15.168 17.7216 13.6128 17.8 12 17.8C10.3872 17.8 8.832 17.72 7.408 17.6016C4.2144 17.336 2.6192 17.2016 1.3696 15.9248C1.30095 15.8546 1.23426 15.7826 1.1696 15.7088C0 14.3568 0 12.584 0 9.03995ZM8.4 5.61275C8.39977 5.54622 8.41614 5.48067 8.44762 5.42206C8.47911 5.36345 8.52472 5.31361 8.58033 5.27707C8.63593 5.24053 8.69977 5.21844 8.76607 5.2128C8.83236 5.20715 8.89902 5.21814 8.96 5.24475L16.6848 8.63355C17.0048 8.77435 17.0048 9.22555 16.6848 9.36635L8.96 12.7536C8.89914 12.7801 8.83263 12.7911 8.76647 12.7855C8.7003 12.78 8.63656 12.758 8.581 12.7217C8.52543 12.6853 8.47979 12.6357 8.4482 12.5773C8.4166 12.5189 8.40003 12.4536 8.4 12.3872V5.61275Z" fill="white"/>
</svg>
