<svg width="24" height="24" viewBox="0 0 24 24" fill="none" xmlns="http://www.w3.org/2000/svg">
<path d="M21 11.9999C21.003 13.7866 20.4715 15.5335 19.474 17.0159C18.6514 18.2428 17.5391 19.2482 16.2355 19.943C14.9319 20.6379 13.4772 21.0009 12 20.9999C10.5228 21.0009 9.06808 20.6379 7.76451 19.943C6.46093 19.2482 5.34865 18.2428 4.526 17.0159C3.74273 15.8483 3.2439 14.5134 3.06951 13.1183C2.89511 11.7232 3.05 10.3066 3.52175 8.98215C3.9935 7.65768 4.769 6.46216 5.78607 5.49142C6.80314 4.52068 8.0335 3.80173 9.37851 3.39221C10.7235 2.98268 12.1458 2.89396 13.5312 3.13317C14.9167 3.37238 16.2269 3.93286 17.3567 4.76969C18.4865 5.60651 19.4046 6.69639 20.0373 7.95197C20.67 9.20755 20.9997 10.5939 21 11.9999Z" stroke="white" stroke-width="1.5"/>
<path d="M13.25 9C13.25 9.69 12.69 10.25 12 10.25V11.75C12.7293 11.75 13.4288 11.4603 13.9445 10.9445C14.4602 10.4288 14.75 9.72935 14.75 9H13.25ZM12 10.25C11.31 10.25 10.75 9.69 10.75 9H9.24996C9.24996 9.72935 9.53969 10.4288 10.0554 10.9445C10.5711 11.4603 11.2706 11.75 12 11.75V10.25ZM10.75 9C10.75 8.31 11.31 7.75 12 7.75V6.25C11.2706 6.25 10.5711 6.53973 10.0554 7.05546C9.53969 7.57118 9.24996 8.27065 9.24996 9H10.75ZM12 7.75C12.69 7.75 13.25 8.31 13.25 9H14.75C14.75 8.27065 14.4602 7.57118 13.9445 7.05546C13.4288 6.53973 12.7293 6.25 12 6.25V7.75ZM5.16596 17.856L4.44696 17.642L4.32996 18.034L4.59696 18.344L5.16596 17.856ZM18.834 17.856L19.404 18.345L19.67 18.035L19.553 17.642L18.834 17.856ZM8.99996 15.75H15V14.25H8.99996V15.75ZM8.99996 14.25C7.97705 14.25 6.98147 14.5802 6.16119 15.1913C5.3409 15.8024 4.73971 16.6619 4.44696 17.642L5.88496 18.07C6.08549 17.3996 6.49689 16.8118 7.05806 16.3939C7.61923 15.9759 8.30024 15.7501 8.99996 15.75V14.25ZM12 20.25C10.8094 20.2514 9.63267 19.9944 8.55104 19.4968C7.46941 18.9993 6.50862 18.273 5.73496 17.368L4.59696 18.344C5.51142 19.413 6.6468 20.272 7.92485 20.8598C9.20289 21.4476 10.5932 21.7513 12 21.75V20.25ZM15 15.75C16.47 15.75 17.715 16.728 18.115 18.07L19.553 17.642C19.2602 16.6619 18.659 15.8024 17.8387 15.1913C17.0184 14.5802 16.0229 14.25 15 14.25V15.75ZM18.265 17.368C17.4913 18.273 16.5305 18.9993 15.4489 19.4968C14.3672 19.9944 13.1905 20.2514 12 20.25V21.75C13.4067 21.7513 14.797 21.4476 16.0751 20.8598C17.3531 20.272 18.4895 19.414 19.404 18.345L18.265 17.368Z" fill="white"/>
</svg>
