<svg width="9" height="16" viewBox="0 0 9 16" fill="none" xmlns="http://www.w3.org/2000/svg">
<path d="M1.035 14.7573C1.12208 14.8446 1.22554 14.9139 1.33943 14.9611C1.45333 15.0084 1.57543 15.0327 1.69875 15.0327C1.82206 15.0327 1.94416 15.0084 2.05806 14.9611C2.17196 14.9139 2.27541 14.8446 2.3625 14.7573L8.595 8.52479C8.66452 8.4554 8.71969 8.37299 8.75732 8.28226C8.79496 8.19153 8.81433 8.09427 8.81433 7.99604C8.81433 7.89781 8.79496 7.80055 8.75732 7.70982C8.71969 7.61909 8.66452 7.53667 8.595 7.46729L2.3625 1.23479C1.995 0.867288 1.4025 0.867288 1.035 1.23479C0.667496 1.60229 0.667497 2.19479 1.035 2.56229L6.465 7.99979L1.0275 13.4373C0.667498 13.7973 0.667498 14.3973 1.035 14.7573Z" fill="#17191C" fill-opacity="0.8"/>
</svg>
