<svg width="16" height="16" viewBox="0 0 16 16" fill="none" xmlns="http://www.w3.org/2000/svg">
<path fill-rule="evenodd" clip-rule="evenodd" d="M12 1.99999C11.2637 1.99999 10.6667 2.59694 10.6667 3.33332C10.6667 4.0697 11.2637 4.66666 12 4.66666C12.7364 4.66666 13.3334 4.0697 13.3334 3.33332C13.3334 2.59694 12.7364 1.99999 12 1.99999ZM9.33337 3.33332C9.33337 1.86056 10.5273 0.666656 12 0.666656C13.4728 0.666656 14.6667 1.86056 14.6667 3.33332C14.6667 4.80608 13.4728 5.99999 12 5.99999C10.5273 5.99999 9.33337 4.80608 9.33337 3.33332Z" fill="#746C82"/>
<path fill-rule="evenodd" clip-rule="evenodd" d="M4.00004 6.66666C3.26366 6.66666 2.66671 7.26361 2.66671 7.99999C2.66671 8.73637 3.26366 9.33332 4.00004 9.33332C4.73642 9.33332 5.33337 8.73637 5.33337 7.99999C5.33337 7.26361 4.73642 6.66666 4.00004 6.66666ZM1.33337 7.99999C1.33337 6.52723 2.52728 5.33332 4.00004 5.33332C5.4728 5.33332 6.66671 6.52723 6.66671 7.99999C6.66671 9.47275 5.4728 10.6667 4.00004 10.6667C2.52728 10.6667 1.33337 9.47275 1.33337 7.99999Z" fill="#746C82"/>
<path fill-rule="evenodd" clip-rule="evenodd" d="M12 11.3333C11.2637 11.3333 10.6667 11.9303 10.6667 12.6667C10.6667 13.403 11.2637 14 12 14C12.7364 14 13.3334 13.403 13.3334 12.6667C13.3334 11.9303 12.7364 11.3333 12 11.3333ZM9.33337 12.6667C9.33337 11.1939 10.5273 9.99999 12 9.99999C13.4728 9.99999 14.6667 11.1939 14.6667 12.6667C14.6667 14.1394 13.4728 15.3333 12 15.3333C10.5273 15.3333 9.33337 14.1394 9.33337 12.6667Z" fill="#746C82"/>
<path fill-rule="evenodd" clip-rule="evenodd" d="M5.1507 8.671C5.33608 8.35289 5.74424 8.24528 6.06236 8.43065L10.6157 11.084C10.9338 11.2694 11.0414 11.6775 10.856 11.9956C10.6707 12.3138 10.2625 12.4214 9.94439 12.236L5.39106 9.58266C5.07294 9.39729 4.96533 8.98912 5.1507 8.671Z" fill="#746C82"/>
<path fill-rule="evenodd" clip-rule="evenodd" d="M10.8492 4.00397C11.0347 4.32197 10.9274 4.7302 10.6094 4.91578L6.06273 7.56911C5.74473 7.75469 5.33649 7.64734 5.15092 7.32934C4.96534 7.01134 5.07269 6.60311 5.39069 6.41753L9.93736 3.7642C10.2554 3.57862 10.6636 3.68597 10.8492 4.00397Z" fill="#746C82"/>
</svg>
