<svg width="32" height="20" viewBox="0 0 32 20" fill="none" xmlns="http://www.w3.org/2000/svg">
<path d="M9.99996 6.66666H12V11C12 11.1768 12.0702 11.3464 12.1952 11.4714C12.3202 11.5964 12.4898 11.6667 12.6666 11.6667C12.8434 11.6667 13.013 11.5964 13.138 11.4714C13.2631 11.3464 13.3333 11.1768 13.3333 11V6.66666H15.3333C15.3961 6.66669 15.4576 6.64896 15.5108 6.61554C15.564 6.58211 15.6066 6.53434 15.6339 6.47772C15.6611 6.42111 15.6717 6.35797 15.6646 6.29556C15.6575 6.23315 15.6329 6.17403 15.5936 6.125L12.927 2.79166C12.8667 2.72268 12.7816 2.68043 12.6902 2.67418C12.5988 2.66793 12.5087 2.69819 12.4396 2.75833C12.4278 2.76868 12.4166 2.77982 12.4063 2.79166L9.73963 6.125C9.70037 6.17403 9.67577 6.23315 9.66865 6.29556C9.66153 6.35797 9.67219 6.42111 9.6994 6.47772C9.72661 6.53434 9.76926 6.58211 9.82244 6.61554C9.87561 6.64896 9.93715 6.66669 9.99996 6.66666Z" fill="#48AB93"/>
<path d="M19.0729 17.2083C19.1042 17.2474 19.1438 17.2789 19.1888 17.3006C19.2339 17.3222 19.2833 17.3335 19.3333 17.3335C19.3833 17.3335 19.4326 17.3222 19.4777 17.3006C19.5227 17.2789 19.5624 17.2474 19.5936 17.2083L22.2603 13.875C22.2995 13.826 22.3241 13.7668 22.3312 13.7044C22.3384 13.642 22.3277 13.5789 22.3005 13.5223C22.2733 13.4657 22.2306 13.4179 22.1774 13.3845C22.1243 13.351 22.0627 13.3333 21.9999 13.3333H19.9999V8.99999C19.9999 8.82318 19.9297 8.65361 19.8047 8.52859C19.6796 8.40357 19.5101 8.33333 19.3333 8.33333C19.1564 8.33333 18.9869 8.40357 18.8619 8.52859C18.7368 8.65361 18.6666 8.82318 18.6666 8.99999V13.3333H16.6666C16.6038 13.3333 16.5422 13.351 16.4891 13.3845C16.4359 13.4179 16.3932 13.4657 16.366 13.5223C16.3388 13.5789 16.3282 13.642 16.3353 13.7044C16.3424 13.7668 16.367 13.826 16.4063 13.875L19.0729 17.2083Z" fill="#E55A53"/>
</svg>
