<svg width="170" height="126" viewBox="0 0 170 126" fill="none" xmlns="http://www.w3.org/2000/svg">
<path d="M119.497 34.5715C119.598 53.1094 104.427 69.0315 84.9111 69.0012C65.8851 68.9709 50.4057 53.4528 50.5017 34.3645C50.5977 14.8671 66.5773 -0.0904848 85.1789 0.000412071C104.139 0.0963588 119.659 15.6751 119.497 34.5715ZM63.3844 49.4837C71.1292 60.9064 87.8464 65.0977 100.578 55.7707C113.587 46.2366 113.592 29.6075 107.282 20.5986C107.039 20.8966 106.792 21.1794 106.569 21.4773C105.205 23.2953 103.791 25.0778 102.512 26.9513C101.866 27.9007 101.123 28.1835 100.012 28.1734C94.1614 28.1229 88.3112 28.1481 82.4558 28.1481H80.9251C82.1022 31.0619 83.2136 33.814 84.3958 36.7429C80.2127 36.7732 76.1964 36.7631 72.2457 36.753C71.3464 35.021 69.2397 29.1379 69.1942 28.1633C69.6135 28.1633 70.0278 28.1633 70.437 28.1633C72.2457 28.1633 74.0593 28.1229 75.868 28.1835C76.6662 28.2087 77.1866 27.9663 77.6867 27.3351C79.5105 25.0223 81.4202 22.7802 83.2389 20.4623C83.7896 19.7604 84.3807 19.5129 85.2648 19.518C91.9183 19.5533 98.5668 19.5382 105.22 19.5331C105.65 19.5331 106.11 19.6341 106.67 19.3261C100.588 11.4332 92.7267 7.38831 82.8651 8.27708C72.0082 9.25674 64.4099 15.1095 60.3481 25.2243C56.8723 33.8797 59.0598 43.7622 63.056 48.7969C63.344 48.4282 63.637 48.0697 63.9098 47.7061C65.4001 45.7215 66.9208 43.7571 68.3556 41.7322C68.8557 41.0302 69.3963 40.7929 70.24 40.798C76.2166 40.8333 82.1931 40.8181 88.1748 40.8131C88.6244 40.8131 89.074 40.7929 89.6752 40.7778C88.5031 37.8792 87.3917 35.132 86.2752 32.3698C87.3058 32.1476 97.1876 32.1173 98.5112 32.3243C99.5368 35.0664 100.578 37.8489 101.659 40.7374C101.133 40.7626 100.724 40.7929 100.315 40.7929C98.4203 40.798 96.5258 40.8232 94.6313 40.7828C93.929 40.7677 93.4693 40.9949 93.0348 41.5453C91.206 43.8531 89.2913 46.0902 87.4927 48.4232C86.8562 49.2463 86.1843 49.519 85.1587 49.514C78.3839 49.4685 71.6041 49.4887 64.8242 49.4887C64.4099 49.4887 64.0007 49.4887 63.3945 49.4887L63.3844 49.4837Z" fill="white"/>
<path d="M14.6477 101.422C14.5568 100.505 14.1667 99.7931 13.4773 99.2856C12.7879 98.778 11.8523 98.5242 10.6705 98.5242C9.86742 98.5242 9.18939 98.6378 8.63636 98.8651C8.08333 99.0848 7.65909 99.3916 7.36364 99.7856C7.07576 100.179 6.93182 100.626 6.93182 101.126C6.91667 101.543 7.00379 101.907 7.19318 102.217C7.39015 102.528 7.65909 102.797 8 103.024C8.34091 103.244 8.73485 103.437 9.18182 103.604C9.62879 103.763 10.1061 103.899 10.6136 104.013L12.7045 104.513C13.7197 104.74 14.6515 105.043 15.5 105.422C16.3485 105.801 17.0833 106.267 17.7045 106.82C18.3258 107.373 18.8068 108.024 19.1477 108.774C19.4962 109.524 19.6742 110.384 19.6818 111.354C19.6742 112.778 19.3106 114.013 18.5909 115.058C17.8788 116.096 16.8485 116.903 15.5 117.479C14.1591 118.047 12.5417 118.331 10.6477 118.331C8.76894 118.331 7.13258 118.043 5.73864 117.467C4.35227 116.892 3.26894 116.039 2.48864 114.911C1.71591 113.774 1.31061 112.369 1.27273 110.695H6.03409C6.08712 111.475 6.31061 112.126 6.70455 112.649C7.10606 113.164 7.64015 113.554 8.30682 113.82C8.98106 114.077 9.74242 114.206 10.5909 114.206C11.4242 114.206 12.1477 114.085 12.7614 113.842C13.3826 113.6 13.8636 113.263 14.2045 112.831C14.5455 112.399 14.7159 111.903 14.7159 111.342C14.7159 110.82 14.5606 110.38 14.25 110.024C13.947 109.668 13.5 109.365 12.9091 109.115C12.3258 108.865 11.6098 108.638 10.7614 108.433L8.22727 107.797C6.26515 107.32 4.71591 106.573 3.57955 105.558C2.44318 104.543 1.87879 103.176 1.88636 101.456C1.87879 100.047 2.25379 98.8159 3.01136 97.7628C3.77652 96.7098 4.82576 95.8878 6.15909 95.2969C7.49242 94.706 9.00758 94.4106 10.7045 94.4106C12.4318 94.4106 13.9394 94.706 15.2273 95.2969C16.5227 95.8878 17.5303 96.7098 18.25 97.7628C18.9697 98.8159 19.3409 100.036 19.3636 101.422H14.6477ZM25.8892 124.547C25.2756 124.547 24.6998 124.498 24.1619 124.399C23.6316 124.308 23.1922 124.191 22.8438 124.047L23.9347 120.433C24.5028 120.608 25.0142 120.702 25.4688 120.717C25.9309 120.733 26.3286 120.626 26.6619 120.399C27.0028 120.172 27.2794 119.786 27.4915 119.24L27.7756 118.501L21.5142 100.547H26.6051L30.2188 113.365H30.4006L34.0483 100.547H39.1733L32.3892 119.888C32.0634 120.827 31.6203 121.645 31.0597 122.342C30.5066 123.047 29.8059 123.589 28.9574 123.967C28.1089 124.354 27.0862 124.547 25.8892 124.547ZM46.4915 107.911V118.001H41.6506V100.547H46.2642V103.626H46.4688C46.8551 102.611 47.5028 101.808 48.4119 101.217C49.321 100.619 50.4233 100.32 51.7188 100.32C52.9309 100.32 53.9877 100.585 54.8892 101.115C55.7907 101.645 56.4915 102.403 56.9915 103.388C57.4915 104.365 57.7415 105.532 57.7415 106.888V118.001H52.9006V107.751C52.9081 106.683 52.6354 105.85 52.0824 105.251C51.5294 104.645 50.768 104.342 49.7983 104.342C49.1468 104.342 48.571 104.483 48.071 104.763C47.5786 105.043 47.1922 105.452 46.9119 105.99C46.6392 106.52 46.4991 107.161 46.4915 107.911ZM69.4432 118.342C67.6553 118.342 66.1174 117.964 64.8295 117.206C63.5492 116.441 62.5644 115.38 61.875 114.024C61.1932 112.668 60.8523 111.108 60.8523 109.342C60.8523 107.554 61.197 105.986 61.8864 104.638C62.5833 103.282 63.572 102.225 64.8523 101.467C66.1326 100.702 67.6553 100.32 69.4205 100.32C70.9432 100.32 72.2765 100.596 73.4205 101.149C74.5644 101.702 75.4697 102.479 76.1364 103.479C76.803 104.479 77.1705 105.653 77.2386 107.001H72.6705C72.5417 106.13 72.2008 105.429 71.6477 104.899C71.1023 104.361 70.3864 104.092 69.5 104.092C68.75 104.092 68.0947 104.297 67.5341 104.706C66.9811 105.108 66.5492 105.695 66.2386 106.467C65.928 107.24 65.7727 108.176 65.7727 109.274C65.7727 110.388 65.9242 111.335 66.2273 112.115C66.5379 112.895 66.9735 113.49 67.5341 113.899C68.0947 114.308 68.75 114.513 69.5 114.513C70.053 114.513 70.5492 114.399 70.9886 114.172C71.4356 113.945 71.803 113.615 72.0909 113.183C72.3864 112.744 72.5795 112.217 72.6705 111.604H77.2386C77.1629 112.937 76.7992 114.111 76.1477 115.126C75.5038 116.134 74.6136 116.922 73.4773 117.49C72.3409 118.058 70.9962 118.342 69.4432 118.342ZM93.054 101.422C92.9631 100.505 92.5729 99.7931 91.8835 99.2856C91.1941 98.778 90.2585 98.5242 89.0767 98.5242C88.2737 98.5242 87.5956 98.6378 87.0426 98.8651C86.4896 99.0848 86.0653 99.3916 85.7699 99.7856C85.482 100.179 85.3381 100.626 85.3381 101.126C85.3229 101.543 85.41 101.907 85.5994 102.217C85.7964 102.528 86.0653 102.797 86.4062 103.024C86.7472 103.244 87.1411 103.437 87.5881 103.604C88.035 103.763 88.5123 103.899 89.0199 104.013L91.1108 104.513C92.1259 104.74 93.0578 105.043 93.9062 105.422C94.7547 105.801 95.4896 106.267 96.1108 106.82C96.732 107.373 97.2131 108.024 97.554 108.774C97.9025 109.524 98.0805 110.384 98.0881 111.354C98.0805 112.778 97.7169 114.013 96.9972 115.058C96.285 116.096 95.2547 116.903 93.9062 117.479C92.5653 118.047 90.9479 118.331 89.054 118.331C87.1752 118.331 85.5388 118.043 84.1449 117.467C82.7585 116.892 81.6752 116.039 80.8949 114.911C80.1222 113.774 79.7169 112.369 79.679 110.695H84.4403C84.4934 111.475 84.7169 112.126 85.1108 112.649C85.5123 113.164 86.0464 113.554 86.7131 113.82C87.3873 114.077 88.1487 114.206 88.9972 114.206C89.8305 114.206 90.554 114.085 91.1676 113.842C91.7888 113.6 92.2699 113.263 92.6108 112.831C92.9517 112.399 93.1222 111.903 93.1222 111.342C93.1222 110.82 92.9669 110.38 92.6562 110.024C92.3532 109.668 91.9063 109.365 91.3153 109.115C90.732 108.865 90.0161 108.638 89.1676 108.433L86.6335 107.797C84.6714 107.32 83.1222 106.573 81.9858 105.558C80.8494 104.543 80.285 103.176 80.2926 101.456C80.285 100.047 80.66 98.8159 81.4176 97.7628C82.1828 96.7098 83.232 95.8878 84.5653 95.2969C85.8987 94.706 87.4138 94.4106 89.1108 94.4106C90.8381 94.4106 92.3456 94.706 93.6335 95.2969C94.929 95.8878 95.9366 96.7098 96.6562 97.7628C97.3759 98.8159 97.7472 100.036 97.7699 101.422H93.054ZM109.193 118.342C107.405 118.342 105.867 117.964 104.58 117.206C103.299 116.441 102.314 115.38 101.625 114.024C100.943 112.668 100.602 111.108 100.602 109.342C100.602 107.554 100.947 105.986 101.636 104.638C102.333 103.282 103.322 102.225 104.602 101.467C105.883 100.702 107.405 100.32 109.17 100.32C110.693 100.32 112.027 100.596 113.17 101.149C114.314 101.702 115.22 102.479 115.886 103.479C116.553 104.479 116.92 105.653 116.989 107.001H112.42C112.292 106.13 111.951 105.429 111.398 104.899C110.852 104.361 110.136 104.092 109.25 104.092C108.5 104.092 107.845 104.297 107.284 104.706C106.731 105.108 106.299 105.695 105.989 106.467C105.678 107.24 105.523 108.176 105.523 109.274C105.523 110.388 105.674 111.335 105.977 112.115C106.288 112.895 106.723 113.49 107.284 113.899C107.845 114.308 108.5 114.513 109.25 114.513C109.803 114.513 110.299 114.399 110.739 114.172C111.186 113.945 111.553 113.615 111.841 113.183C112.136 112.744 112.33 112.217 112.42 111.604H116.989C116.913 112.937 116.549 114.111 115.898 115.126C115.254 116.134 114.364 116.922 113.227 117.49C112.091 118.058 110.746 118.342 109.193 118.342ZM127.974 118.342C126.209 118.342 124.683 117.967 123.395 117.217C122.115 116.46 121.126 115.407 120.429 114.058C119.732 112.702 119.384 111.13 119.384 109.342C119.384 107.539 119.732 105.964 120.429 104.615C121.126 103.259 122.115 102.206 123.395 101.456C124.683 100.698 126.209 100.32 127.974 100.32C129.74 100.32 131.262 100.698 132.543 101.456C133.83 102.206 134.823 103.259 135.52 104.615C136.217 105.964 136.565 107.539 136.565 109.342C136.565 111.13 136.217 112.702 135.52 114.058C134.823 115.407 133.83 116.46 132.543 117.217C131.262 117.967 129.74 118.342 127.974 118.342ZM127.997 114.592C128.8 114.592 129.471 114.365 130.009 113.911C130.546 113.448 130.952 112.82 131.224 112.024C131.505 111.229 131.645 110.323 131.645 109.308C131.645 108.293 131.505 107.388 131.224 106.592C130.952 105.797 130.546 105.168 130.009 104.706C129.471 104.244 128.8 104.013 127.997 104.013C127.187 104.013 126.505 104.244 125.952 104.706C125.406 105.168 124.993 105.797 124.713 106.592C124.44 107.388 124.304 108.293 124.304 109.308C124.304 110.323 124.44 111.229 124.713 112.024C124.993 112.82 125.406 113.448 125.952 113.911C126.505 114.365 127.187 114.592 127.997 114.592ZM139.713 118.001V100.547H144.406V103.592H144.588C144.906 102.509 145.44 101.691 146.19 101.138C146.94 100.577 147.804 100.297 148.781 100.297C149.024 100.297 149.285 100.312 149.565 100.342C149.846 100.373 150.092 100.414 150.304 100.467V104.763C150.077 104.695 149.762 104.634 149.361 104.581C148.959 104.528 148.592 104.501 148.259 104.501C147.546 104.501 146.91 104.657 146.349 104.967C145.796 105.27 145.357 105.695 145.031 106.24C144.713 106.786 144.554 107.414 144.554 108.126V118.001H139.713ZM159.949 118.342C158.153 118.342 156.608 117.979 155.312 117.251C154.025 116.517 153.032 115.479 152.335 114.138C151.638 112.789 151.29 111.195 151.29 109.354C151.29 107.558 151.638 105.983 152.335 104.626C153.032 103.27 154.013 102.214 155.278 101.456C156.551 100.698 158.044 100.32 159.756 100.32C160.907 100.32 161.979 100.505 162.972 100.876C163.972 101.24 164.843 101.789 165.585 102.524C166.335 103.259 166.919 104.183 167.335 105.297C167.752 106.403 167.96 107.698 167.96 109.183V110.513H153.222V107.513H163.403C163.403 106.816 163.252 106.198 162.949 105.661C162.646 105.123 162.225 104.702 161.688 104.399C161.157 104.089 160.54 103.933 159.835 103.933C159.1 103.933 158.449 104.104 157.881 104.445C157.32 104.778 156.881 105.229 156.562 105.797C156.244 106.358 156.081 106.983 156.074 107.672V110.524C156.074 111.388 156.233 112.134 156.551 112.763C156.877 113.392 157.335 113.876 157.926 114.217C158.517 114.558 159.218 114.729 160.028 114.729C160.566 114.729 161.059 114.653 161.506 114.501C161.953 114.35 162.335 114.123 162.653 113.82C162.972 113.517 163.214 113.145 163.381 112.706L167.858 113.001C167.631 114.077 167.165 115.017 166.46 115.82C165.763 116.615 164.862 117.236 163.756 117.683C162.657 118.123 161.388 118.342 159.949 118.342Z" fill="white"/>
</svg>
