<svg width="113" height="23" viewBox="0 0 113 23" fill="none" xmlns="http://www.w3.org/2000/svg">
<path d="M22.9996 11.5243C23.0333 17.7038 17.976 23.0114 11.4704 23.0013C5.12816 22.9912 -0.0318494 17.8183 0.000148014 11.4552C0.0321455 4.95588 5.35888 -0.0301627 11.5596 0.000137362C17.88 0.0321208 23.0535 5.22522 22.9996 11.5243ZM4.29454 16.4952C6.87623 20.3029 12.4488 21.7 16.6927 18.5909C21.0292 15.4128 21.0309 9.86954 18.9275 6.86647C18.8466 6.96579 18.7641 7.06005 18.69 7.15937C18.2353 7.76537 17.7638 8.35959 17.3377 8.98411C17.1222 9.30057 16.8746 9.39484 16.5041 9.39147C14.5539 9.37464 12.6038 9.38306 10.6519 9.38306H10.1417C10.534 10.3543 10.9045 11.2718 11.2986 12.2481C9.9042 12.2582 8.56536 12.2548 7.24841 12.2515C6.94865 11.6741 6.24639 9.71299 6.23123 9.38811C6.37101 9.38811 6.5091 9.38811 6.64551 9.38811C7.24841 9.38811 7.853 9.37464 8.4559 9.39484C8.72198 9.40326 8.89544 9.32246 9.06216 9.11204C9.67012 8.34107 10.3067 7.59367 10.913 6.82102C11.0965 6.58704 11.2936 6.50455 11.5883 6.50624C13.8062 6.51802 16.0225 6.51297 18.2404 6.51128C18.3835 6.51128 18.5368 6.54495 18.7237 6.44227C16.6961 3.81121 14.0757 2.46286 10.7883 2.75913C7.16926 3.08569 4.63641 5.03668 3.28241 8.40841C2.12377 11.2936 2.85297 14.5879 4.18508 16.2662C4.28107 16.1433 4.37875 16.0238 4.46969 15.9026C4.96649 15.2411 5.4734 14.5863 5.95167 13.9112C6.1184 13.6772 6.29859 13.5981 6.57983 13.5998C8.5721 13.6116 10.5644 13.6066 12.5583 13.6049C12.7082 13.6049 12.8581 13.5981 13.0585 13.5931C12.6678 12.6268 12.2973 11.7111 11.9251 10.7903C12.2686 10.7163 15.5627 10.7062 16.0039 10.7752C16.3458 11.6892 16.6927 12.6167 17.0531 13.5796C16.878 13.588 16.7416 13.5981 16.6051 13.5981C15.9736 13.5998 15.3421 13.6082 14.7106 13.5948C14.4765 13.5897 14.3232 13.6655 14.1784 13.8489C13.5688 14.6182 12.9305 15.364 12.331 16.1417C12.1188 16.416 11.8948 16.5069 11.5529 16.5053C9.29457 16.4901 7.03454 16.4968 4.77451 16.4968C4.63641 16.4968 4.5 16.4968 4.29791 16.4968L4.29454 16.4952Z" fill="white"/>
<path d="M35.3239 9.20827C35.2784 8.74994 35.0833 8.39388 34.7386 8.14009C34.3939 7.8863 33.9261 7.75941 33.3352 7.75941C32.9337 7.75941 32.5947 7.81623 32.3182 7.92986C32.0417 8.03971 31.8295 8.19312 31.6818 8.39009C31.5379 8.58706 31.4659 8.81055 31.4659 9.06055C31.4583 9.26888 31.5019 9.4507 31.5966 9.606C31.6951 9.7613 31.8295 9.89577 32 10.0094C32.1705 10.1193 32.3674 10.2158 32.5909 10.2992C32.8144 10.3787 33.053 10.4469 33.3068 10.5037L34.3523 10.7537C34.8598 10.8674 35.3258 11.0189 35.75 11.2083C36.1742 11.3977 36.5417 11.6306 36.8523 11.9071C37.1629 12.1837 37.4034 12.5094 37.5739 12.8844C37.7481 13.2594 37.8371 13.6893 37.8409 14.1742C37.8371 14.8863 37.6553 15.5037 37.2955 16.0265C36.9394 16.5454 36.4242 16.9488 35.75 17.2367C35.0795 17.5208 34.2708 17.6628 33.3239 17.6628C32.3845 17.6628 31.5663 17.5189 30.8693 17.231C30.1761 16.9431 29.6345 16.517 29.2443 15.9526C28.858 15.3844 28.6553 14.6818 28.6364 13.8446H31.017C31.0436 14.2348 31.1553 14.5605 31.3523 14.8219C31.553 15.0795 31.8201 15.2746 32.1534 15.4071C32.4905 15.5359 32.8712 15.6003 33.2955 15.6003C33.7121 15.6003 34.0739 15.5397 34.3807 15.4185C34.6913 15.2973 34.9318 15.1287 35.1023 14.9128C35.2727 14.6969 35.358 14.4488 35.358 14.1685C35.358 13.9071 35.2803 13.6874 35.125 13.5094C34.9735 13.3314 34.75 13.1799 34.4545 13.0549C34.1629 12.9299 33.8049 12.8162 33.3807 12.714L32.1136 12.3958C31.1326 12.1571 30.358 11.784 29.7898 11.2765C29.2216 10.7689 28.9394 10.0852 28.9432 9.22532C28.9394 8.52077 29.1269 7.90524 29.5057 7.37873C29.8883 6.85221 30.4129 6.44123 31.0795 6.14577C31.7462 5.85032 32.5038 5.70259 33.3523 5.70259C34.2159 5.70259 34.9697 5.85032 35.6136 6.14577C36.2614 6.44123 36.7652 6.85221 37.125 7.37873C37.4848 7.90524 37.6705 8.51509 37.6818 9.20827H35.3239ZM40.9446 20.7708C40.6378 20.7708 40.3499 20.7462 40.081 20.6969C39.8158 20.6515 39.5961 20.5927 39.4219 20.5208L39.9673 18.714C40.2514 18.8011 40.5071 18.8484 40.7344 18.856C40.9654 18.8636 41.1643 18.8105 41.331 18.6969C41.5014 18.5833 41.6397 18.3901 41.7457 18.1174L41.8878 17.748L38.7571 8.77077H41.3026L43.1094 15.1799H43.2003L45.0241 8.77077H47.5866L44.1946 18.4412C44.0317 18.9109 43.8101 19.32 43.5298 19.6685C43.2533 20.0208 42.9029 20.2916 42.4787 20.481C42.0545 20.6742 41.5431 20.7708 40.9446 20.7708ZM51.2457 12.4526V17.498H48.8253V8.77077H51.1321V10.3105H51.2344C51.4276 9.80297 51.7514 9.40146 52.206 9.106C52.6605 8.80676 53.2116 8.65714 53.8594 8.65714C54.4654 8.65714 54.9938 8.78971 55.4446 9.05486C55.8954 9.32002 56.2457 9.6988 56.4957 10.1912C56.7457 10.6799 56.8707 11.2632 56.8707 11.9412V17.498H54.4503V12.373C54.4541 11.839 54.3177 11.4223 54.0412 11.123C53.7647 10.82 53.384 10.6685 52.8991 10.6685C52.5734 10.6685 52.2855 10.7386 52.0355 10.8787C51.7893 11.0189 51.5961 11.2234 51.456 11.4924C51.3196 11.7575 51.2495 12.0776 51.2457 12.4526ZM62.7216 17.6685C61.8277 17.6685 61.0587 17.4791 60.4148 17.1003C59.7746 16.7177 59.2822 16.1874 58.9375 15.5094C58.5966 14.8314 58.4261 14.0511 58.4261 13.1685C58.4261 12.2746 58.5985 11.4905 58.9432 10.8162C59.2917 10.1382 59.786 9.60979 60.4261 9.231C61.0663 8.84843 61.8277 8.65714 62.7102 8.65714C63.4716 8.65714 64.1383 8.7954 64.7102 9.07191C65.2822 9.34843 65.7348 9.73668 66.0682 10.2367C66.4015 10.7367 66.5852 11.3238 66.6193 11.998H64.3352C64.2708 11.5624 64.1004 11.2121 63.8239 10.9469C63.5511 10.678 63.1932 10.5435 62.75 10.5435C62.375 10.5435 62.0473 10.6458 61.767 10.8503C61.4905 11.0511 61.2746 11.3446 61.1193 11.731C60.964 12.1174 60.8864 12.5852 60.8864 13.1344C60.8864 13.6912 60.9621 14.1647 61.1136 14.5549C61.2689 14.945 61.4867 15.2424 61.767 15.4469C62.0473 15.6515 62.375 15.7537 62.75 15.7537C63.0265 15.7537 63.2746 15.6969 63.4943 15.5833C63.7178 15.4696 63.9015 15.3049 64.0455 15.089C64.1932 14.8693 64.2898 14.606 64.3352 14.2992H66.6193C66.5814 14.9658 66.3996 15.553 66.0739 16.0605C65.7519 16.5643 65.3068 16.9583 64.7386 17.2424C64.1705 17.5265 63.4981 17.6685 62.7216 17.6685ZM74.527 9.20827C74.4815 8.74994 74.2865 8.39388 73.9418 8.14009C73.5971 7.8863 73.1293 7.75941 72.5384 7.75941C72.1368 7.75941 71.7978 7.81623 71.5213 7.92986C71.2448 8.03971 71.0327 8.19312 70.8849 8.39009C70.741 8.58706 70.669 8.81055 70.669 9.06055C70.6615 9.26888 70.705 9.4507 70.7997 9.606C70.8982 9.7613 71.0327 9.89577 71.2031 10.0094C71.3736 10.1193 71.5705 10.2158 71.794 10.2992C72.0175 10.3787 72.2562 10.4469 72.5099 10.5037L73.5554 10.7537C74.063 10.8674 74.5289 11.0189 74.9531 11.2083C75.3774 11.3977 75.7448 11.6306 76.0554 11.9071C76.366 12.1837 76.6065 12.5094 76.777 12.8844C76.9512 13.2594 77.0402 13.6893 77.044 14.1742C77.0402 14.8863 76.8584 15.5037 76.4986 16.0265C76.1425 16.5454 75.6274 16.9488 74.9531 17.2367C74.2827 17.5208 73.474 17.6628 72.527 17.6628C71.5876 17.6628 70.7694 17.5189 70.0724 17.231C69.3793 16.9431 68.8376 16.517 68.4474 15.9526C68.0611 15.3844 67.8584 14.6818 67.8395 13.8446H70.2202C70.2467 14.2348 70.3584 14.5605 70.5554 14.8219C70.7562 15.0795 71.0232 15.2746 71.3565 15.4071C71.6937 15.5359 72.0743 15.6003 72.4986 15.6003C72.9152 15.6003 73.277 15.5397 73.5838 15.4185C73.8944 15.2973 74.1349 15.1287 74.3054 14.9128C74.4759 14.6969 74.5611 14.4488 74.5611 14.1685C74.5611 13.9071 74.4834 13.6874 74.3281 13.5094C74.1766 13.3314 73.9531 13.1799 73.6577 13.0549C73.366 12.9299 73.008 12.8162 72.5838 12.714L71.3168 12.3958C70.3357 12.1571 69.5611 11.784 68.9929 11.2765C68.4247 10.7689 68.1425 10.0852 68.1463 9.22532C68.1425 8.52077 68.33 7.90524 68.7088 7.37873C69.0914 6.85221 69.616 6.44123 70.2827 6.14577C70.9493 5.85032 71.7069 5.70259 72.5554 5.70259C73.419 5.70259 74.1728 5.85032 74.8168 6.14577C75.4645 6.44123 75.9683 6.85221 76.3281 7.37873C76.688 7.90524 76.8736 8.51509 76.8849 9.20827H74.527ZM82.5966 17.6685C81.7027 17.6685 80.9337 17.4791 80.2898 17.1003C79.6496 16.7177 79.1572 16.1874 78.8125 15.5094C78.4716 14.8314 78.3011 14.0511 78.3011 13.1685C78.3011 12.2746 78.4735 11.4905 78.8182 10.8162C79.1667 10.1382 79.661 9.60979 80.3011 9.231C80.9413 8.84843 81.7027 8.65714 82.5852 8.65714C83.3466 8.65714 84.0133 8.7954 84.5852 9.07191C85.1572 9.34843 85.6098 9.73668 85.9432 10.2367C86.2765 10.7367 86.4602 11.3238 86.4943 11.998H84.2102C84.1458 11.5624 83.9754 11.2121 83.6989 10.9469C83.4261 10.678 83.0682 10.5435 82.625 10.5435C82.25 10.5435 81.9223 10.6458 81.642 10.8503C81.3655 11.0511 81.1496 11.3446 80.9943 11.731C80.839 12.1174 80.7614 12.5852 80.7614 13.1344C80.7614 13.6912 80.8371 14.1647 80.9886 14.5549C81.1439 14.945 81.3617 15.2424 81.642 15.4469C81.9223 15.6515 82.25 15.7537 82.625 15.7537C82.9015 15.7537 83.1496 15.6969 83.3693 15.5833C83.5928 15.4696 83.7765 15.3049 83.9205 15.089C84.0682 14.8693 84.1648 14.606 84.2102 14.2992H86.4943C86.4564 14.9658 86.2746 15.553 85.9489 16.0605C85.6269 16.5643 85.1818 16.9583 84.6136 17.2424C84.0455 17.5265 83.3731 17.6685 82.5966 17.6685ZM91.9872 17.6685C91.1046 17.6685 90.3414 17.481 89.6974 17.106C89.0573 16.7272 88.563 16.2007 88.2145 15.5265C87.866 14.8484 87.6918 14.0624 87.6918 13.1685C87.6918 12.267 87.866 11.4791 88.2145 10.8049C88.563 10.1268 89.0573 9.60032 89.6974 9.22532C90.3414 8.84653 91.1046 8.65714 91.9872 8.65714C92.8698 8.65714 93.6312 8.84653 94.2713 9.22532C94.9152 9.60032 95.4115 10.1268 95.7599 10.8049C96.1084 11.4791 96.2827 12.267 96.2827 13.1685C96.2827 14.0624 96.1084 14.8484 95.7599 15.5265C95.4115 16.2007 94.9152 16.7272 94.2713 17.106C93.6312 17.481 92.8698 17.6685 91.9872 17.6685ZM91.9986 15.7935C92.4001 15.7935 92.7353 15.6799 93.0043 15.4526C93.2732 15.2215 93.4759 14.9071 93.6122 14.5094C93.7524 14.1117 93.8224 13.659 93.8224 13.1515C93.8224 12.6439 93.7524 12.1912 93.6122 11.7935C93.4759 11.3958 93.2732 11.0814 93.0043 10.8503C92.7353 10.6193 92.4001 10.5037 91.9986 10.5037C91.5933 10.5037 91.2524 10.6193 90.9759 10.8503C90.7031 11.0814 90.4967 11.3958 90.3565 11.7935C90.2202 12.1912 90.152 12.6439 90.152 13.1515C90.152 13.659 90.2202 14.1117 90.3565 14.5094C90.4967 14.9071 90.7031 15.2215 90.9759 15.4526C91.2524 15.6799 91.5933 15.7935 91.9986 15.7935ZM97.8565 17.498V8.77077H100.203V10.2935H100.294C100.453 9.75183 100.72 9.34274 101.095 9.06623C101.47 8.78593 101.902 8.64577 102.391 8.64577C102.512 8.64577 102.643 8.65335 102.783 8.6685C102.923 8.68365 103.046 8.70449 103.152 8.731V10.8787C103.038 10.8446 102.881 10.8143 102.68 10.7878C102.48 10.7613 102.296 10.748 102.129 10.748C101.773 10.748 101.455 10.8257 101.175 10.981C100.898 11.1325 100.679 11.3446 100.516 11.6174C100.357 11.8901 100.277 12.2045 100.277 12.5605V17.498H97.8565ZM107.974 17.6685C107.077 17.6685 106.304 17.4867 105.656 17.123C105.012 16.7556 104.516 16.2367 104.168 15.5662C103.819 14.892 103.645 14.0946 103.645 13.1742C103.645 12.2765 103.819 11.4886 104.168 10.8105C104.516 10.1325 105.007 9.60411 105.639 9.22532C106.276 8.84653 107.022 8.65714 107.878 8.65714C108.454 8.65714 108.99 8.74994 109.486 8.93555C109.986 9.11736 110.421 9.39199 110.793 9.75941C111.168 10.1268 111.459 10.589 111.668 11.1458C111.876 11.6988 111.98 12.3465 111.98 13.089V13.7537H104.611V12.2537H109.702C109.702 11.9052 109.626 11.5965 109.474 11.3276C109.323 11.0587 109.113 10.8484 108.844 10.6969C108.579 10.5416 108.27 10.464 107.918 10.464C107.55 10.464 107.224 10.5492 106.94 10.7196C106.66 10.8863 106.44 11.1117 106.281 11.3958C106.122 11.6761 106.041 11.9886 106.037 12.3333V13.7594C106.037 14.1912 106.116 14.5643 106.276 14.8787C106.438 15.1931 106.668 15.4355 106.963 15.606C107.259 15.7765 107.609 15.8617 108.014 15.8617C108.283 15.8617 108.529 15.8238 108.753 15.748C108.976 15.6723 109.168 15.5587 109.327 15.4071C109.486 15.2556 109.607 15.07 109.69 14.8503L111.929 14.998C111.815 15.5359 111.582 16.0056 111.23 16.4071C110.882 16.8049 110.431 17.1155 109.878 17.339C109.329 17.5587 108.694 17.6685 107.974 17.6685Z" fill="white"/>
</svg>
